# xmcd CD database file
#
# Track frame offsets:
#	150
#	18465
#	38955
#	57874
#	79950
#	98715
#	118601
#	136778
#	157257
#	177847
#	196339
#	214576
#	229616
#	255930
#	273499
#	287742
#	313545
#
# Disc length: 4421 seconds
#
# Revision: 0
# Processed by: cddbd v1.5.2PL0 Copyright (c) Steve Scherf et al.
# Submitted via: jetAudio 7
#
DISCID=e8114311
DTITLE=群星 - 雁斐生日纪念专辑
DYEAR=1900
DGENRE=Unknown Genre
TTITLE0=旅行的意义
TTITLE1=我们的纪念日
TTITLE2=可不可以不勇敢
TTITLE3=最初的梦想
TTITLE4=一个像夏天一个像秋天
TTITLE5=仨人
TTITLE6=爱过
TTITLE7=怎样
TTITLE8=时间快转
TTITLE9=小手拉大手
TTITLE10=暖暖
TTITLE11=一个人走
TTITLE12=不会分离
TTITLE13=我就是我
TTITLE14=有你真好
TTITLE15=水，火烟雾，
TTITLE16=勇敢的心主题曲
EXTD=
EXTT0=
EXTT1=
EXTT2=
EXTT3=
EXTT4=
EXTT5=
EXTT6=
EXTT7=
EXTT8=
EXTT9=
EXTT10=
EXTT11=
EXTT12=
EXTT13=
EXTT14=
EXTT15=
EXTT16=
PLAYORDER=
